<?xml version="1.0" encoding="UTF-8" standalone="no"?>
<!-- Created with Inkscape (http://www.inkscape.org/) -->

<svg
   width="78.15451mm"
   height="78.164108mm"
   viewBox="0 0 78.154511 78.164109"
   version="1.1"
   id="svg326"
   inkscape:export-filename="ocelot.png"
   inkscape:export-xdpi="300"
   inkscape:export-ydpi="300"
   xml:space="preserve"
   inkscape:version="1.2.2 (b0a8486541, 2022-12-01)"
   sodipodi:docname="logo.svg"
   xmlns:inkscape="http://www.inkscape.org/namespaces/inkscape"
   xmlns:sodipodi="http://sodipodi.sourceforge.net/DTD/sodipodi-0.dtd"
   xmlns="http://www.w3.org/2000/svg"
   xmlns:svg="http://www.w3.org/2000/svg"><sodipodi:namedview
     id="namedview328"
     pagecolor="#ffffff"
     bordercolor="#111111"
     borderopacity="1"
     inkscape:showpageshadow="0"
     inkscape:pageopacity="0"
     inkscape:pagecheckerboard="1"
     inkscape:deskcolor="#d1d1d1"
     inkscape:document-units="mm"
     showgrid="false"
     inkscape:zoom="0.49709596"
     inkscape:cx="-307.78766"
     inkscape:cy="335.95123"
     inkscape:window-width="1280"
     inkscape:window-height="728"
     inkscape:window-x="0"
     inkscape:window-y="0"
     inkscape:window-maximized="1"
     inkscape:current-layer="layer1" /><defs
     id="defs323" /><g
     inkscape:label="Ebene 1"
     inkscape:groupmode="layer"
     id="layer1"
     transform="translate(-169.44054,-59.281485)"><path
       style="fill:currentColor;stroke-width:0.211667"
       d="m 183.38567,137.18462 c -0.34239,-0.19246 -0.60518,-0.56715 -0.68792,-0.98082 -0.0736,-0.36817 -0.13388,-6.32486 -0.13388,-13.2371 v -12.56771 h -6.13833 c -5.85611,0 -6.1578,-0.0195 -6.56167,-0.42333 -0.38301,-0.38302 -0.42333,-0.70556 -0.42333,-3.38667 0,-2.68111 0.0403,-3.00365 0.42333,-3.38667 0.40387,-0.40387 0.70556,-0.42333 6.56167,-0.42333 h 6.13833 v -5.820835 -5.82084 h -6.09123 c -5.17047,0 -6.16235,-0.0498 -6.56167,-0.3295 -0.45031,-0.3154 -0.47043,-0.4643 -0.47043,-3.4805 0,-3.0162 0.0201,-3.16509 0.47043,-3.48049 0.3993,-0.27968 1.3907,-0.32951 6.55647,-0.32951 h 6.08604 l 0.0581,-11.74005 c 0.0542,-10.94538 0.0837,-11.76563 0.43626,-12.11792 0.35585,-0.35557 1.26088,-0.37786 15.34584,-0.37786 16.27114,0 17.16698,0.0487 21.80129,1.18453 11.69062,2.86532 20.36608,10.51789 24.72804,21.81246 1.50147,3.88778 2.36958,8.27854 2.60461,13.17363 0.85043,17.712365 -6.3714,31.466285 -20.09043,38.262085 -3.0085,1.49028 -5.95066,2.40453 -10.26583,3.19002 -2.15871,0.39295 -3.45406,0.42995 -17.78,0.50783 -13.31725,0.0724 -15.5282,0.041 -16.00571,-0.22742 z m 30.24694,-9.95118 c 4.72997,-0.71043 9.43434,-2.69831 12.76963,-5.39594 4.88729,-3.9529 7.73754,-9.2483 9.00662,-16.73318 0.52213,-3.0795 0.52154,-11.093765 -0.001,-13.911075 -1.01937,-5.49568 -2.6712,-9.32296 -5.60781,-12.99327 -3.43163,-4.289 -8.64804,-7.34059 -14.60945,-8.54649 -2.88329,-0.58324 -4.10522,-0.63476 -13.62962,-0.57461 l -7.14372,0.0451 -6e-5,7.24958 -6e-5,7.24959 11.05964,-0.0528 c 8.64221,-0.0413 11.17532,0.006 11.58882,0.21763 0.5244,0.26798 0.5297,0.29895 0.58937,3.43945 0.0574,3.02171 0.0391,3.18626 -0.39386,3.53946 -0.41972,0.34238 -1.30126,0.37041 -11.64896,0.37041 H 194.4172 l -8e-5,5.87375 -8e-5,5.873755 11.12452,-0.0694 c 9.91992,-0.0619 11.18053,-0.0327 11.64175,0.26946 0.51027,0.33434 0.51723,0.38137 0.51723,3.49702 0,3.02356 -0.02,3.17215 -0.47043,3.48762 -0.41135,0.28812 -1.8734,0.3295 -11.64167,0.3295 H 194.4172 v 8.5725 8.5725 h 8.5739 c 6.45536,0 9.08478,-0.0767 10.64151,-0.31055 z"
       id="path1768" /></g></svg>
